Coordinates
version=1
nRows=22
nColumns=24
inDegrees=yes

Units are S.I. units (second, meters, Newtons, ...)
Angles are in degrees.

endheader
time	pelvis_tilt	pelvis_list	pelvis_rotation	pelvis_tx	pelvis_ty	pelvis_tz	hip_flexion_r	hip_adduction_r	hip_rotation_r	knee_angle_r	ankle_angle_r	subtalar_angle_r	mtp_angle_r	hip_flexion_l	hip_adduction_l	hip_rotation_l	knee_angle_l	ankle_angle_l	subtalar_angle_l	mtp_angle_l	lumbar_extension	lumbar_bending	lumbar_rotation
      1.12883333	     -0.27014880	     -2.13787077	     -0.88680863	     -0.03210282	      0.97782017	      0.32713213	    -22.32620053	      5.05141819	     -2.36258347	      2.53410856	     12.97232124	     -6.02167835	      2.35720165	     22.42487914	     -0.27256206	     -0.33762763	      5.23278919	     -2.68439056	     -6.19817181	      4.42711024	    -12.89628863	      7.65603096	      6.73783678
      1.13300000	     -0.26158315	     -1.99600202	     -0.85379942	     -0.02614243	      0.97703075	      0.32678494	    -22.48059673	      4.86652821	     -2.50511544	      2.07991674	     13.15372017	     -5.80456702	      2.42022716	     22.42946750	     -0.03667829	     -0.19589732	      5.04490326	     -2.83906241	     -6.50862126	      4.45971169	    -12.89079215	      7.45703182	      6.72437772
      1.13716667	     -0.22778742	     -1.85439363	     -0.81522612	     -0.02015230	      0.97631964	      0.32639724	    -22.62983283	      4.67922094	     -2.70783936	      1.55806329	     13.33546921	     -5.51992804	      2.50583564	     22.41478606	      0.20245993	     -0.02284724	      4.77485568	     -3.08263781	     -6.96202193	      4.51271416	    -12.88809344	      7.27041129	      6.70783535
      1.14133333	     -0.21655676	     -1.69461875	     -0.77281189	     -0.01412812	      0.97562977	      0.32600916	    -22.74045754	      4.47421289	     -2.88589024	      1.00605811	     13.48989893	     -5.28695150	      2.60534378	     22.43426091	      0.45773224	      0.18073530	      4.41856987	     -3.36742011	     -7.44020795	      4.58318530	    -12.87037920	      7.05715132	      6.67677363
      1.14550000	     -0.19512984	     -1.52136524	     -0.72606371	     -0.00806981	      0.97499842	      0.32560701	    -22.84921675	      4.25550526	     -3.05549726	      0.42606671	     13.62259941	     -5.07396761	      2.71644317	     22.45124489	      0.72750454	      0.39672127	      3.98737204	     -3.71888180	     -7.97314280	      4.66550366	    -12.85564974	      6.82606528	      6.63648780
      1.14966667	     -0.18879013	     -1.33718378	     -0.67487907	     -0.00198347	      0.97440086	      0.32518138	    -22.91660072	      4.02476558	     -3.23083269	     -0.20578764	     13.73436535	     -4.87055286	      2.85039173	     22.49210229	      1.00974148	      0.64305252	      3.48938459	     -4.12843679	     -8.56945633	      4.76559672	    -12.82905522	      6.58648935	      6.58770796
      1.15383333	     -0.17720664	     -1.14630214	     -0.61823681	      0.00413603	      0.97385484	      0.32474950	    -22.97771604	      3.78846808	     -3.40038334	     -0.86224303	     13.81563087	     -4.69506514	      2.99999323	     22.53993487	      1.29904767	      0.89538843	      2.92049981	     -4.59431047	     -9.20018779	      4.87542584	    -12.79512377	      6.33557239	      6.52592064
      1.15800000	     -0.17434915	     -0.94230050	     -0.55860297	      0.01028326	      0.97334752	      0.32429191	    -23.00969220	      3.53760027	     -3.57039374	     -1.55883033	     13.86792236	     -4.53636936	      3.17161976	     22.60574925	      1.60346767	      1.15606855	      2.29492840	     -5.11278487	     -9.87030375	      4.99366169	    -12.75712927	      6.07345172	      6.45804174
      1.16216667	     -0.17195166	     -0.74007581	     -0.49231848	      0.01644699	      0.97289044	      0.32382466	    -23.02104965	      3.29033890	     -3.72834000	     -2.29583470	     13.88016761	     -4.40691788	      3.36495892	     22.68500323	      1.90797218	      1.41811115	      1.61114478	     -5.66659893	    -10.55735299	      5.11520820	    -12.71169655	      5.80323804	      6.38122272
      1.16633333	     -0.17930638	     -0.53075190	     -0.42293615	      0.02263543	      0.97247102	      0.32333657	    -23.00091462	      3.03541830	     -3.88536804	     -3.07368904	     13.85671567	     -4.30188821	      3.58375022	     22.78416287	      2.22122013	      1.67688792	      0.87941832	     -6.25079914	    -11.25852760	      5.23608278	    -12.65566493	      5.53083997	      6.29742711
      1.17050000	     -0.18128772	     -0.31624982	     -0.34460290	      0.02884501	      0.97210619	      0.32281980	    -22.96260159	      2.77641946	     -4.05023497	     -3.90087507	     13.78969002	     -4.21258022	      3.87324523	     22.87939805	      2.54416070	      1.96355963	      0.12000575	     -6.85534401	    -12.00073950	      5.37434522	    -12.61033768	      5.25516724	      6.19974593
      1.17466667	     -0.20446891	     -0.09890652	     -0.27140983	      0.03506943	      0.97177282	      0.32230533	    -22.88790252	      2.51297297	     -4.18247385	     -4.74831401	     13.67897576	     -4.16862913	      4.17082335	     23.01631936	      2.86696952	      2.20157386	     -0.69900618	     -7.47697864	    -12.68835124	      5.49053321	    -12.54032723	      4.97818656	      6.10420481
      1.17883333	     -0.22207798	      0.11447929	     -0.18676159	      0.04130790	      0.97149348	      0.32176431	    -22.79461578	      2.25677390	     -4.31623673	     -5.64438996	     13.51598296	     -4.16052205	      4.48239068	     23.15604822	      3.19049474	      2.42438044	     -1.55271038	     -8.08447251	    -13.36105042	      5.58689209	    -12.46030027	      4.70115300	      5.99806853
      1.18300000	     -0.23965492	      0.33069819	     -0.10064129	      0.04755296	      0.97126577	      0.32119670	    -22.67233200	      1.99509727	     -4.45680151	     -6.59382660	     13.30936884	     -4.15776949	      4.90391605	     23.29361036	      3.51988665	      2.67655233	     -2.41970289	     -8.67195095	    -14.06768401	      5.68757278	    -12.39731563	      4.42696497	      5.88585897
      1.18716667	     -0.26452650	      0.54254235	     -0.01512148	      0.05381192	      0.97108681	      0.32063294	    -22.52036446	      1.73868878	     -4.57219673	     -7.58095364	     13.03538291	     -4.21786411	      5.31923736	     23.45125029	      3.84134488	      2.86306659	     -3.32528875	     -9.22231575	    -14.66494291	      5.75670093	    -12.31209694	      4.15050883	      5.77244496
      1.19133333	     -0.22464671	      0.77527837	      0.06366288	      0.06007446	      0.97104288	      0.32007034	    -22.42116905	      1.45813161	     -4.68314287	     -8.58225052	     12.63637246	     -4.42024880	     11.50275035	     23.53367141	      4.18115277	      3.02674655	     -4.23480907	     -9.71365857	    -15.23989868	      6.46624442	    -12.32916843	      3.83788428	      5.69047222
      1.19550000	     -0.27371824	      0.97255117	      0.16376275	      0.06634939	      0.97093621	      0.31945876	    -22.19257767	      1.21867944	     -4.80249167	     -9.65319526	     12.20708298	     -4.51003453	     11.56278644	     23.73186623	      4.49348976	      3.18552997	     -5.20232569	    -10.10420200	    -15.69956079	      6.43449574	    -12.21282625	      3.58986573	      5.55138245
      1.19966667	     -0.29119929	      1.18012168	      0.24846491	      0.07261250	      0.97092499	      0.31884845	    -21.96161590	      0.96058177	     -4.90220866	    -10.79085579	     11.77062055	     -4.63443779	     11.68439578	     23.87992202	      4.81245664	      3.34151592	     -6.14721419	    -10.47166290	    -16.19365472	      6.38550713	    -12.14554197	      3.32421662	      5.43073997
      1.20383333	     -0.27301127	      1.41023770	      0.33605845	      0.07890457	      0.97101221	      0.31824954	    -21.76059158	      0.68438191	     -4.99428129	    -11.93486549	     11.25864253	     -4.81737126	     11.78822623	     23.99305220	      5.15188228	      3.43912904	     -7.12074785	    -10.69613413	    -16.56664381	      6.34577681	    -12.12556099	      3.00525742	      5.32216408
      1.20800000	     -0.30236509	      1.57624552	      0.41774462	      0.08511097	      0.97107967	      0.31758538	    -21.43313728	      0.45681735	     -5.09669885	    -13.21229294	     10.72167378	     -4.91822843	     12.12309182	     24.15085835	      5.43442868	      3.61231219	     -8.07848521	    -10.97157911	    -17.09179388	      6.23198676	    -12.05103849	      2.82067300	      5.19083020
      1.21216667	     -0.23247093	      1.83319256	      0.48423452	      0.09139592	      0.97135138	      0.31692445	    -21.20148026	      0.12227076	     -5.27568971	    -14.49481369	     10.00364951	     -5.06530976	     16.59180736	     24.13755847	      5.80660452	      3.79452482	     -8.92499246	    -11.18152151	    -17.61251782	      4.81165567	    -12.08883798	      2.50205028	      4.99964088
      1.21633333	     -0.26105444	      2.00298068	      0.55795351	      0.09759820	      0.97151942	      0.31629854	    -20.81824144	     -0.10649773	     -5.31942374	    -15.85330476	      9.31010936	     -5.35819016	     16.68562171	     24.29728264	      6.07948565	      3.84565443	     -9.92164946	    -11.09372470	    -17.74126120	      4.79770708	    -12.01558145	      2.28060446	      4.96458142
